<svg width="52" height="19" viewBox="0 0 52 19" fill="none" xmlns="http://www.w3.org/2000/svg">
<path d="M10.032 18.12C7.104 18.12 4.816 17.392 3.168 15.936C1.536 14.464 0.72 12.288 0.72 9.408C0.72 6.544 1.552 4.384 3.216 2.928C4.896 1.456 7.328 0.719999 10.512 0.719999H19.632V3.84H10.776C8.68 3.84 7.128 4.28 6.12 5.16C5.128 6.04 4.632 7.456 4.632 9.408C4.632 11.264 5.072 12.64 5.952 13.536C6.832 14.416 8.12 14.896 9.816 14.976V8.304H20.568V18.12H10.032ZM13.416 15H16.728V11.424H13.416V15ZM23.9222 18V0.839999H27.7622V18H23.9222ZM31.1175 18V0.887999L45.5655 0.839999C47.4695 0.839999 48.8775 1.24 49.7895 2.04C50.7175 2.824 51.1815 4.008 51.1815 5.592C51.1815 7.176 50.6535 8.336 49.5975 9.072C50.3015 9.456 50.8215 9.968 51.1575 10.608C51.4935 11.232 51.6615 12.04 51.6615 13.032C51.6615 14.648 51.1975 15.88 50.2695 16.728C49.3575 17.56 47.9495 17.976 46.0455 17.976L31.1175 18ZM45.1095 3.912H34.9575V7.752H45.1095C46.5655 7.752 47.2935 7.096 47.2935 5.784C47.2935 4.536 46.5655 3.912 45.1095 3.912ZM45.5895 10.824H34.9575V14.904H45.5895C47.0455 14.904 47.7735 14.216 47.7735 12.84C47.7735 11.496 47.0455 10.824 45.5895 10.824Z" fill="#41B6E8"/>
</svg>
