<svg width="152" height="12" viewBox="0 0 152 12" fill="none" xmlns="http://www.w3.org/2000/svg">
<path d="M5.852 11.07C4.144 11.07 2.80933 10.6453 1.848 9.796C0.896 8.93733 0.42 7.668 0.42 5.988C0.42 4.31733 0.905333 3.05733 1.876 2.208C2.856 1.34933 4.27467 0.92 6.132 0.92H11.452V2.74H6.286C5.06333 2.74 4.158 2.99667 3.57 3.51C2.99133 4.02333 2.702 4.84933 2.702 5.988C2.702 7.07067 2.95867 7.87333 3.472 8.396C3.98533 8.90933 4.73667 9.18933 5.726 9.236V5.344H11.998V11.07H5.852ZM7.826 9.25H9.758V7.164H7.826V9.25ZM13.7446 11V0.99H15.7746V11H13.7446ZM21.009 11.07C19.7583 11.07 18.783 10.762 18.083 10.146C17.383 9.52067 17.033 8.606 17.033 7.402C17.033 6.18867 17.383 5.274 18.083 4.658C18.783 4.03267 19.7583 3.72 21.009 3.72H23.599C24.8496 3.72 25.825 4.03267 26.525 4.658C27.225 5.274 27.575 6.18867 27.575 7.402C27.575 8.606 27.225 9.52067 26.525 10.146C25.825 10.762 24.8496 11.07 23.599 11.07H21.009ZM21.009 9.46H23.599C24.2056 9.46 24.6676 9.292 24.985 8.956C25.3116 8.62 25.475 8.102 25.475 7.402C25.475 6.69267 25.3116 6.17 24.985 5.834C24.6676 5.498 24.2056 5.33 23.599 5.33H21.009C20.4023 5.33 19.9356 5.498 19.609 5.834C19.2916 6.17 19.133 6.69267 19.133 7.402C19.133 8.102 19.2916 8.62 19.609 8.956C19.9356 9.292 20.4023 9.46 21.009 9.46ZM28.8384 11V0.99H30.8684V11H28.8384ZM29.1884 11V9.39H34.0184C34.625 9.39 35.087 9.22667 35.4044 8.9C35.731 8.564 35.8944 8.06467 35.8944 7.402C35.8944 6.73 35.731 6.23067 35.4044 5.904C35.087 5.568 34.625 5.4 34.0184 5.4H29.3284V3.79H34.0184C35.269 3.79 36.2444 4.098 36.9444 4.714C37.6444 5.33 37.9944 6.226 37.9944 7.402C37.9944 8.56867 37.6444 9.46 36.9444 10.076C36.2444 10.692 35.269 11 34.0184 11H29.1884ZM41.1743 11C40.4183 11 39.8397 10.8087 39.4383 10.426C39.037 10.0433 38.8363 9.49733 38.8363 8.788C38.8363 8.088 39.037 7.54667 39.4383 7.164C39.8397 6.78133 40.4183 6.59 41.1743 6.59H46.5503V6.254C46.5503 5.68467 46.2703 5.4 45.7103 5.4H39.7743V3.79H46.2423C47.0917 3.79 47.6937 3.986 48.0483 4.378C48.403 4.76067 48.5803 5.302 48.5803 6.002V11H41.1743ZM41.5383 9.39H46.5503V8.2H41.5383C41.361 8.2 41.221 8.256 41.1183 8.368C41.025 8.47067 40.9783 8.61067 40.9783 8.788C40.9783 8.96533 41.025 9.11 41.1183 9.222C41.221 9.334 41.361 9.39 41.5383 9.39ZM50.1255 11V0.99H52.1555V11H50.1255ZM53.9038 11V0.99H56.1438V11H53.9038ZM57.8911 11V3.79H64.1771C64.9984 3.79 65.5958 3.99533 65.9691 4.406C66.3518 4.80733 66.5431 5.33933 66.5431 6.002V11H64.5131V6.24C64.5131 5.68 64.2331 5.4 63.6731 5.4H59.9211V11H57.8911ZM70.4163 11L67.3783 3.79H69.5063L71.8583 9.376H72.5583L74.9103 3.79H77.0383L74.0003 11H70.4163ZM81.507 11.07C80.2563 11.07 79.281 10.762 78.581 10.146C77.881 9.52067 77.531 8.606 77.531 7.402C77.531 6.18867 77.881 5.274 78.581 4.658C79.281 4.03267 80.2563 3.72 81.507 3.72H85.007C85.8283 3.72 86.4537 3.916 86.883 4.308C87.3217 4.69067 87.541 5.24133 87.541 5.96C87.541 7.42533 86.6963 8.158 85.007 8.158H79.715C79.911 9.026 80.5083 9.46 81.507 9.46H87.177V11.07H81.507ZM81.507 5.33C80.5457 5.33 79.953 5.736 79.729 6.548H84.909C85.0957 6.548 85.2403 6.492 85.343 6.38C85.455 6.268 85.511 6.114 85.511 5.918C85.511 5.526 85.3103 5.33 84.909 5.33H81.507ZM88.5652 11.07V9.46H95.4252C95.8172 9.46 96.0132 9.24067 96.0132 8.802C96.0132 8.37267 95.8172 8.158 95.4252 8.158H90.9872C90.1565 8.158 89.5265 7.97133 89.0972 7.598C88.6679 7.21533 88.4532 6.66933 88.4532 5.96C88.4532 5.24133 88.6679 4.69067 89.0972 4.308C89.5359 3.916 90.1659 3.72 90.9872 3.72H97.3712V5.33H91.0852C90.6839 5.33 90.4832 5.526 90.4832 5.918C90.4832 6.114 90.5392 6.268 90.6512 6.38C90.7632 6.492 90.9079 6.548 91.0852 6.548H95.7892C96.5172 6.548 97.0725 6.73933 97.4552 7.122C97.8472 7.49533 98.0432 8.04133 98.0432 8.76C98.0432 9.488 97.8472 10.0573 97.4552 10.468C97.0632 10.8693 96.5079 11.07 95.7892 11.07H88.5652ZM102.987 11C102.175 11 101.578 10.7993 101.195 10.398C100.812 9.98733 100.621 9.45067 100.621 8.788V5.4H98.5348V3.79H100.621V1.578H102.651V3.79H105.647V5.4H102.651V8.536C102.651 9.10533 102.931 9.39 103.491 9.39H106.039V11H102.987ZM107.293 11V1.018L115.721 0.99C116.831 0.99 117.653 1.22333 118.185 1.69C118.726 2.14733 118.997 2.838 118.997 3.762C118.997 4.686 118.689 5.36267 118.073 5.792C118.483 6.016 118.787 6.31467 118.983 6.688C119.179 7.052 119.277 7.52333 119.277 8.102C119.277 9.04467 119.006 9.76333 118.465 10.258C117.933 10.7433 117.111 10.986 116.001 10.986L107.293 11ZM115.455 2.782H109.533V5.022H115.455C116.304 5.022 116.729 4.63933 116.729 3.874C116.729 3.146 116.304 2.782 115.455 2.782ZM115.735 6.814H109.533V9.194H115.735C116.584 9.194 117.009 8.79267 117.009 7.99C117.009 7.206 116.584 6.814 115.735 6.814ZM122.522 11C121.766 11 121.187 10.8087 120.786 10.426C120.385 10.0433 120.184 9.49733 120.184 8.788C120.184 8.088 120.385 7.54667 120.786 7.164C121.187 6.78133 121.766 6.59 122.522 6.59H127.898V6.254C127.898 5.68467 127.618 5.4 127.058 5.4H121.122V3.79H127.59C128.439 3.79 129.041 3.986 129.396 4.378C129.751 4.76067 129.928 5.302 129.928 6.002V11H122.522ZM122.886 9.39H127.898V8.2H122.886C122.709 8.2 122.569 8.256 122.466 8.368C122.373 8.47067 122.326 8.61067 122.326 8.788C122.326 8.96533 122.373 9.11 122.466 9.222C122.569 9.334 122.709 9.39 122.886 9.39ZM131.473 11V3.79H137.759C138.58 3.79 139.178 3.99533 139.551 4.406C139.934 4.80733 140.125 5.33933 140.125 6.002V11H138.095V6.24C138.095 5.68 137.815 5.4 137.255 5.4H133.503V11H131.473ZM141.59 11V0.99H143.62V3.79H148.464C149.286 3.79 149.911 3.986 150.34 4.378C150.779 4.76067 150.998 5.31133 150.998 6.03C150.998 7.206 150.438 7.906 149.318 8.13L151.026 11H148.744L147.092 8.214H143.62V11H141.59ZM148.366 5.386H143.62V6.618H148.366C148.553 6.618 148.698 6.562 148.8 6.45C148.912 6.338 148.968 6.184 148.968 5.988C148.968 5.58667 148.768 5.386 148.366 5.386Z" fill="#D7D7D7"/>
</svg>
